#!OML:ASF H:\Terrain\Patient Classification 1\Terrain2\Thursday\justin.ASF
:FULLY-SPECIFIED
:DEGREES
3009
root -11.4034 17.2502 -9.43844 -178.193 175.843 -179.164
lowerback 7.46718 0.552645 -3.33367
upperback 3.22939 0.53732 1.78206
thorax -0.893256 0.234104 3.67279
lowerneck -14.696 -1.40088 -7.59701
upperneck 36.4572 -0.286127 1.87059
head 15.2565 -0.885622 2.09447
rclavicle -2.98177e-016 -7.55382e-015
rhumerus -28.4272 -7.38247 -82.4593
rradius 35.3754
rwrist -13.2146
rhand -19.468 12.3021
rfingers 7.12502
rthumb 6.85341 -17.567
lclavicle -2.98177e-016 -7.55382e-015
lhumerus -32.6416 6.12271 85.5851
lradius 29.9814
lwrist 1.97698
lhand -14.9569 22.3614
lfingers 7.12502
lthumb 11.2063 52.0421
rfemur -33.1729 -8.1865 19.5598
rtibia 39.7997
rfoot -11.6584 -3.58398
rtoes 6.70445
lfemur -0.0705422 -0.878326 -23.6474
ltibia 18.3282
lfoot -16.8084 -6.22351
ltoes 10.1183
3010
root -11.4094 17.2517 -9.36444 -178.059 175.655 -179.036
lowerback 7.49553 0.517153 -3.44119
upperback 3.16227 0.481023 1.73697
thorax -0.97355 0.208217 3.69124
lowerneck -14.691 -1.40468 -7.46628
upperneck 36.6173 -0.28218 1.74333
head 15.3328 -0.887198 2.02107
rclavicle 2.34566e-014 -7.95139e-016
rhumerus -28.5795 -7.65863 -82.2813
rradius 35.0447
rwrist -13.2595
rhand -19.1744 11.3735
rfingers 7.12502
rthumb 7.13685 -18.4861
lclavicle 2.34566e-014 -7.95139e-016
lhumerus -32.6328 5.55993 85.6906
lradius 30.2026
lwrist 2.47339
lhand -15.1 22.0154
lfingers 7.12502
lthumb 11.0683 51.7036
rfemur -33.2637 -8.41432 19.4608
rtibia 38.0786
rfoot -11.1296 -2.88652
rtoes 7.27336
lfemur 0.392017 -0.743379 -23.7081
ltibia 17.676
lfoot -16.6818 -6.34559
ltoes 9.89192
3011
root -11.4181 17.2528 -9.28573 -177.872 175.594 -179.044
lowerback 7.42977 0.545427 -3.39179
upperback 3.08219 0.522808 1.69296
thorax -1.02315 0.231999 3.61402
lowerneck -14.8477 -1.51181 -7.59149
upperneck 36.7956 -0.483533 2.00301
head 15.4706 -0.957928 2.1237
rclavicle -1.71949e-014 -1.11319e-014
rhumerus -29.0156 -8.06201 -82.1215
rradius 34.9345
rwrist -12.9378
rhand -19.8832 10.7349
rfingers 7.12502
rthumb 6.45259 -19.1468
lclavicle -1.71949e-014 -1.11319e-014
lhumerus -32.5584 5.09557 85.7593
lradius 30.4235
lwrist 2.68638
lhand -15.1344 21.6058
lfingers 7.12502
lthumb 11.0352 51.2957
rfemur -33.4 -8.24496 19.4796
rtibia 36.3587
rfoot -10.6165 -2.40193
rtoes 7.13529
lfemur 0.743856 -0.422399 -23.5593
ltibia 17.1046
lfoot -16.3446 -7.06629
ltoes 11.7154
3012
root -11.4327 17.2584 -9.19888 -177.85 175.526 -179.287
lowerback 7.30367 0.487739 -3.28822
upperback 3.15148 0.45917 1.81775
thorax -0.876422 0.196195 3.69084
lowerneck -14.8304 -1.51222 -7.7541
upperneck 36.6813 -0.479512 2.11717
head 15.4114 -0.960572 2.19943
rclavicle 9.64106e-015 -3.57812e-015
rhumerus -29.2814 -8.32512 -81.9581
rradius 34.6925
rwrist -12.5973
rhand -20.7911 9.6093
rfingers 7.12502
rthumb 5.57605 -20.2973
lclavicle 9.64106e-015 -3.57812e-015
lhumerus -32.3704 4.97591 85.855
lradius 30.6448
lwrist 3.10653
lhand -15.4207 22.1337
lfingers 7.12502
lthumb 10.759 51.8382
rfemur -33.3704 -7.72357 19.721
rtibia 34.6979
rfoot -10.1875 -2.36015
rtoes 6.15499
lfemur 1.22965 -0.073095 -23.1045
ltibia 16.6213
lfoot -15.9608 -7.87791
ltoes 13.6545
3013
root -11.4448 17.2635 -9.11189 -177.943 175.388 -179.611
lowerback 7.30412 0.368184 -3.06821
upperback 3.24958 0.317651 1.97916
thorax -0.762891 0.12247 3.74549
lowerneck -14.6817 -1.42852 -7.71257
upperneck 36.5434 -0.288447 1.86437
head 15.2975 -0.905941 2.11332
rclavicle -6.95746e-015 4.77083e-015
rhumerus -29.2079 -8.352 -81.8661
rradius 33.8077
rwrist -12.4432
rhand -21.6513 8.32454
rfingers 7.12502
rthumb 4.74546 -21.6023
lclavicle -6.95746e-015 4.77083e-015
lhumerus -32.2737 5.04577 85.852
lradius 30.8504
lwrist 3.2676
lhand -15.5484 22.4571
lfingers 7.12502
lthumb 10.6358 52.1679
rfemur -33.1486 -7.29188 20.0319
rtibia 33.1649
rfoot -10.1338 -2.40634
rtoes 4.37629
lfemur 1.85853 0.118513 -22.5973
ltibia 16.1554
lfoot -15.774 -8.15661
ltoes 13.7387
3014
root -11.4522 17.2559 -9.03034 -177.959 175.236 -179.592
lowerback 7.41514 0.338914 -2.97586
upperback 3.27292 0.281677 1.92702
thorax -0.796807 0.105916 3.64185
lowerneck -14.6448 -1.42404 -7.4896
upperneck 36.4705 -0.285362 1.67482
head 15.2516 -0.897685 1.99264
rclavicle 8.74653e-015 -1.39149e-014
rhumerus -29.134 -8.66301 -81.7541
rradius 32.8363
rwrist -12.0116
rhand -22.0756 8.54596
rfingers 7.12502
rthumb 4.33579 -21.3897
lclavicle 8.74653e-015 -1.39149e-014
lhumerus -32.1118 5.0455 85.6934
lradius 30.8747
lwrist 2.72035
lhand -14.6906 21.8458
lfingers 7.12502
lthumb 11.4631 51.5124
rfemur -33.0104 -7.12649 19.9715
rtibia 31.8416
rfoot -10.1685 -2.1249
rtoes 3.98513
lfemur 2.43396 0.352876 -22.486
ltibia 15.5872
lfoot -15.6302 -8.45395
ltoes 12.5348
